<!--?xml version="1.0" encoding="UTF-8" standalone="no"?-->
<svg viewport-fill="#ffffff" xmlns:dc="http://purl.org/dc/elements/1.1/" xmlns:cc="http://creativecommons.org/ns#" xmlns:rdf="http://www.w3.org/1999/02/22-rdf-syntax-ns#" xmlns:svg="http://www.w3.org/2000/svg" xmlns="http://www.w3.org/2000/svg" xmlns:xlink="http://www.w3.org/1999/xlink" id="svg336359" viewBox="0 0 1024 768" height="768px" width="1024px" version="1.1">
  
  <defs id="defs336363"></defs>
  <style><![CDATA[   #title path, #tagline path, #letter path, #title polygon, #tagline polygon, #letter polygon{ fill: #eb3047 !important; } #icon *{ fill: #eb3047 !important; } ]]> </style><g id="logo-group"><rect x="0" y="0" width="1024" height="768" style="fill: #ffffff" />
    <g id="icon" transform="translate(0 278.85074067009435) translate(208.25454689681908 39.86113757056069) scale(1.246043560091759) translate(-273.8555 48.816)"><svg x="271.7198" y="-54.6129" width="61.02000000000001" height="61.02000000000001" viewBox="0 0 100 100"><g><polygon points="28.6,61.3 25.8,59.7 36.3,41.5 39.1,43.1 47.9,27.8 47.9,9.5 46,9.5 3.9,82.5 4.8,84.1 20.7,74.9  "></polygon><polygon points="22.8,78.6 6.9,87.8 7.9,89.4 31,89.4 37.4,85.7 64.5,85.7 70.9,89.4 92.1,89.4 93.1,87.8 77.2,78.6  "></polygon><polygon points="52.1,9.5 52.1,27.8 60.5,42.3 63.3,40.7 73.8,58.9 71,60.5 79.3,74.9 95.2,84.1 96.1,82.5 54,9.5  "></polygon></g></svg></g>
    <g id="title" style="font-style:normal;font-weight:700;font-size:72px;line-height:1;font-family:Jura;font-variant-ligatures:none;text-align:center;text-anchor:middle" aria-label="Alpha Health">
      <path id="path336367" style="font-style: normal; font-weight: 700; font-size: 72px; line-height: 1; font-family: Jura; font-variant-ligatures: none; text-align: center; text-anchor: middle; display: none;" d="m 315.3995,-4.248 q 0.288,0.648 0.288,1.44 0,1.728 -1.944,2.52 -0.648,0.288 -1.44,0.288 -1.728,0 -2.52,-1.944 l -3.888,-9.432 h -22.392 l -3.744,9.432 Q 278.9675,0 277.2395,0 q -0.72,0 -1.368,-0.288 -2.016,-0.72 -2.016,-2.52 0,-0.792 0.288,-1.44 l 17.136,-42.192 q 1.08,-2.376 3.384,-2.376 h 0.144 q 2.376,0.144 3.168,2.376 z m -29.52,-13.176 h 17.568 l -9,-21.816 z"></path>
      <path id="path336369" style="font-style: normal; font-weight: 700; font-size: 72px; line-height: 1; font-family: Jura; font-variant-ligatures: none; text-align: center; text-anchor: middle;" d="m 335.59438,0 q -5.47201,0 -8.20801,-2.664 -2.664,-2.736 -2.664,-8.28 v -36.72 q 0,-1.44 0.792,-2.232 0.792,-0.792 2.232,-0.792 1.44,0 2.23201,0.792 0.79199,0.792 0.79199,2.232 v 36.72 q 0,2.952 0.936,3.96 1.00801,0.936 3.88801,0.936 3.096,0 3.096,3.024 0.072,1.44 -0.72001,2.232 Q 337.17838,0 335.59438,0 Z" transform="translate(0 278.85074067009435) translate(290.2236160508085 37.52854402606892) scale(1.246043560091759) translate(-324.72237 50.688)"></path>
      <path id="path336371" style="font-style: normal; font-weight: 700; font-size: 72px; line-height: 1; font-family: Jura; font-variant-ligatures: none; text-align: center; text-anchor: middle;" d="m 367.379,-36.504 q 7.2,0 10.656,3.456 3.456,3.456 3.456,10.656 v 8.28 q 0,7.2 -3.456,10.656 Q 374.579,0 367.379,0 h -13.968 v 11.376 q 0,1.44 -0.792,2.232 -0.792,0.792 -2.232,0.792 -1.44,0 -2.232,-0.792 -0.792,-0.792 -0.792,-2.232 V -33.48 q 0,-1.44 0.792,-2.232 0.792,-0.792 2.232,-0.792 1.44,0 2.232,0.792 0.792,0.792 0.792,2.232 v 0.936 q 3.96,-3.96 11.232,-3.96 z m 8.064,14.112 q 0,-3.168 -0.72,-4.896 -0.72,-1.728 -2.448,-2.448 -1.728,-0.72 -4.896,-0.72 h -2.736 q -4.752,0 -7.92,1.152 -3.096,1.152 -3.312,3.384 v 19.872 h 13.968 q 3.168,0 4.896,-0.72 1.728,-0.72 2.448,-2.448 0.72,-1.728 0.72,-4.896 z" transform="translate(0 278.85074067009435) translate(318.4348272587288 55.20242588241044) scale(1.246043560091759) translate(-347.363 36.504)"></path>
      <path id="path336373" style="font-style: normal; font-weight: 700; font-size: 72px; line-height: 1; font-family: Jura; font-variant-ligatures: none; text-align: center; text-anchor: middle;" d="m 414.40962,-36.504 q 7.2,0 10.656,3.456 3.45601,3.456 3.45601,10.656 v 19.368 q 0,1.44 -0.79201,2.232 -0.79199,0.792 -2.232,0.792 -1.43999,0 -2.232,-0.792 -0.792,-0.792 -0.792,-2.232 v -19.368 q 0,-3.168 -0.72,-4.896 -0.71999,-1.728 -2.44799,-2.448 -1.72801,-0.72 -4.89601,-0.72 h -2.016 q -4.752,0 -7.416,1.224 -2.664,1.224 -3.456,3.744 -0.072,0.36 -0.35999,1.08 v 21.384 q 0,1.44 -0.79201,2.232 -0.792,0.792 -2.23199,0.792 -1.44,0 -2.23201,-0.792 -0.79199,-0.792 -0.79199,-2.232 v -20.88 q -0.36001,-0.576 -0.36001,-1.224 0,-0.432 0.072,-0.648 0.144,-0.72 0.28801,-1.152 v -20.736 q 0,-1.44 0.79199,-2.232 0.79201,-0.792 2.23201,-0.792 1.43999,0 2.23199,0.792 0.79201,0.792 0.79201,2.232 V -34.2 q 4.39199,-2.304 11.23199,-2.304 z" transform="translate(0 278.85074067009435) translate(377.4856041184845 37.52854402606892) scale(1.246043560091759) translate(-394.75362 50.688)"></path>
      <path id="path336375" style="font-style: normal; font-weight: 700; font-size: 72px; line-height: 1; font-family: Jura; font-variant-ligatures: none; text-align: center; text-anchor: middle;" d="m 459.15312,-36.504 q 7.2,0 10.656,3.456 3.456,3.456 3.456,10.656 v 19.368 q 0,1.44 -0.792,2.232 -0.792,0.792 -2.232,0.792 -1.43999,0 -2.232,-0.792 -0.792,-0.792 -0.792,-2.232 V -4.68 Q 463.40112,0 455.98512,0 h -4.032 q -6.048,0 -9,-2.952 -2.952,-2.952 -2.952,-9 0,-6.048 2.88,-9 2.952,-2.952 9.072,-2.952 h 15.192 q -0.216,-3.744 -1.944,-5.112 -1.728,-1.44 -6.048,-1.44 h -4.176 q -3.6,0 -5.39999,0.504 -1.728,0.504 -2.44801,1.728 -0.64799,1.512 -1.368,2.088 -0.71999,0.576 -2.01599,0.576 -1.29601,0 -2.16001,-0.648 -0.792,-0.648 -0.792,-1.728 0,-0.432 0.072,-0.72 1.08001,-4.032 4.464,-5.904 3.456,-1.944 9.648,-1.944 z m 7.704,25.488 q 0.072,-0.216 0.144,-0.432 0.072,-0.288 0.216,-0.576 v -5.832 h -15.264 q -2.44799,0 -3.672,0.504 -1.224,0.504 -1.72799,1.728 -0.50401,1.224 -0.50401,3.672 0,2.448 0.50401,3.672 0.50399,1.224 1.72799,1.728 1.22401,0.504 3.672,0.504 h 4.032 q 9.144,0 10.872,-4.968 z" transform="translate(0 278.85074067009435) translate(433.86596010373637 55.20242588241044) scale(1.246043560091759) translate(-440.00112 36.504)"></path>
      <path id="path336377" style="font-style: normal; font-weight: 700; font-size: 72px; line-height: 1; font-family: Jura; font-variant-ligatures: none; text-align: center; text-anchor: middle;" d="m 513.23075,0 q -1.152,0 -2.088,-0.936 -0.936,-0.936 -0.936,-2.088 v -42.768 q 0,-1.224 0.936,-2.088 0.936,-0.936 2.088,-0.936 1.224,0 2.088,0.936 0.936,0.864 0.936,2.088 v 18.072 h 29.376 v -18.072 q 0,-1.224 0.864,-2.088 0.936,-0.936 2.16,-0.936 1.224,0 2.088,0.936 0.936,0.864 0.936,2.088 v 42.768 q 0,1.152 -0.936,2.088 -0.864,0.936 -2.088,0.936 -1.224,0 -2.16,-0.864 -0.864,-0.936 -0.864,-2.16 v -18.648 h -29.376 v 18.648 q 0,1.152 -0.936,2.088 -0.864,0.936 -2.088,0.936 z" transform="translate(0 278.85074067009435) translate(521.3452332474212 39.86113757056069) scale(1.246043560091759) translate(-510.20675 48.816)"></path>
      <path id="path336379" style="font-style: normal; font-weight: 700; font-size: 72px; line-height: 1; font-family: Jura; font-variant-ligatures: none; text-align: center; text-anchor: middle;" d="m 570.91737,-15.768 v 1.728 q 0,3.168 0.72001,4.896 0.72,1.656 2.44799,2.376 1.728,0.72 4.896,0.72 h 5.904 q 3.672,0 5.40001,-0.648 1.79999,-0.72 2.376,-2.448 0.432,-1.44 1.15199,-2.088 0.72,-0.72 2.08801,-0.72 1.36799,0 2.08799,0.648 0.79201,0.576 0.79201,1.728 0,0.504 -0.072,0.72 Q 597.12537,0 584.88537,0 h -5.904 q -7.19999,0 -10.656,-3.456 -3.456,-3.456 -3.456,-10.584 v -8.352 q 0,-7.272 3.456,-10.728 3.45601,-3.456 10.656,-3.384 h 5.904 q 7.2,0 10.65601,3.456 3.456,3.456 3.456,10.656 v 3.6 q 0,1.44 -0.79201,2.232 -0.792,0.792 -2.23199,0.792 z m 0,-6.048 h 22.03201 v -0.576 q 0,-3.168 -0.72001,-4.896 -0.72,-1.728 -2.44799,-2.448 -1.72801,-0.72 -4.89601,-0.72 h -5.904 q -3.168,-0.072 -4.896,0.648 -1.72799,0.72 -2.44799,2.448 -0.72001,1.728 -0.72001,4.968 z" transform="translate(0 278.85074067009435) translate(589.4572388761642 55.200595444420664) scale(1.246043560091759) translate(-564.86937 36.505469)"></path>
      <path id="path336381" style="font-style: normal; font-weight: 700; font-size: 72px; line-height: 1; font-family: Jura; font-variant-ligatures: none; text-align: center; text-anchor: middle;" d="m 630.0125,-36.504 q 7.2,0 10.656,3.456 3.456,3.456 3.456,10.656 v 19.368 q 0,1.44 -0.792,2.232 -0.792,0.792 -2.232,0.792 -1.44,0 -2.232,-0.792 -0.792,-0.792 -0.792,-2.232 V -4.68 Q 634.2605,0 626.8445,0 h -4.032 q -6.048,0 -9,-2.952 -2.952,-2.952 -2.952,-9 0,-6.048 2.88,-9 2.952,-2.952 9.072,-2.952 h 15.192 q -0.216,-3.744 -1.944,-5.112 -1.728,-1.44 -6.048,-1.44 h -4.176 q -3.6,0 -5.4,0.504 -1.728,0.504 -2.448,1.728 -0.648,1.512 -1.368,2.088 -0.72,0.576 -2.016,0.576 -1.296,0 -2.16,-0.648 -0.792,-0.648 -0.792,-1.728 0,-0.432 0.072,-0.72 1.08,-4.032 4.464,-5.904 3.456,-1.944 9.648,-1.944 z m 7.704,25.488 q 0.072,-0.216 0.144,-0.432 0.072,-0.288 0.216,-0.576 v -5.832 h -15.264 q -2.448,0 -3.672,0.504 -1.224,0.504 -1.728,1.728 -0.504,1.224 -0.504,3.672 0,2.448 0.504,3.672 0.504,1.224 1.728,1.728 1.224,0.504 3.672,0.504 h 4.032 q 9.144,0 10.872,-4.968 z" transform="translate(0 278.85074067009435) translate(646.7641902340071 55.20242588241044) scale(1.246043560091759) translate(-610.8605 36.504)"></path>
      <path id="path336383" style="font-style: normal; font-weight: 700; font-size: 72px; line-height: 1; font-family: Jura; font-variant-ligatures: none; text-align: center; text-anchor: middle;" d="m 669.2975,0 q -5.472,0 -8.208,-2.664 -2.664,-2.736 -2.664,-8.28 v -36.72 q 0,-1.44 0.792,-2.232 0.792,-0.792 2.232,-0.792 1.44,0 2.232,0.792 0.792,0.792 0.792,2.232 v 36.72 q 0,2.952 0.936,3.96 1.008,0.936 3.888,0.936 3.096,0 3.096,3.024 0.072,1.44 -0.72,2.232 Q 670.8815,0 669.2975,0 Z" transform="translate(0 278.85074067009435) translate(706.0322521697717 37.52854402606892) scale(1.246043560091759) translate(-658.4255 50.688)"></path>
      <path id="path336385" style="font-style: normal; font-weight: 700; font-size: 72px; line-height: 1; font-family: Jura; font-variant-ligatures: none; text-align: center; text-anchor: middle;" d="m 697.88037,-6.048 q 3.024,0 3.024,3.024 0,1.44 -0.79199,2.232 -0.792,0.792 -2.23201,0.792 -7.12799,0 -10.51199,-3.384 -3.38401,-3.384 -3.38401,-10.44 v -16.632 h -3.528 q -1.43999,0 -2.232,-0.792 -0.792,-0.792 -0.792,-2.232 0,-3.024 3.024,-3.024 h 3.528 v -5.256 q 0,-1.44 0.79201,-2.232 0.79199,-0.792 2.23199,-0.792 1.44001,0 2.232,0.792 0.792,0.792 0.792,2.232 v 5.256 h 8.28 q 3.024,0 3.024,3.024 0,1.44 -0.792,2.232 -0.79199,0.792 -2.232,0.792 h -8.28 v 16.632 q 0,3.096 0.72001,4.752 0.72,1.656 2.37599,2.376 1.656,0.648 4.752,0.648 z" transform="translate(0 278.85074067009435) translate(729.7156401307728 44.88518520485067) scale(1.246043560091759) translate(-677.43237 44.784)"></path>
      <path id="path336387" style="font-style: normal; font-weight: 700; font-size: 72px; line-height: 1; font-family: Jura; font-variant-ligatures: none; text-align: center; text-anchor: middle;" d="m 732.36275,-36.504 q 7.2,0 10.656,3.456 3.456,3.456 3.456,10.656 v 19.368 q 0,1.44 -0.792,2.232 -0.792,0.792 -2.232,0.792 -1.44,0 -2.232,-0.792 -0.792,-0.792 -0.792,-2.232 v -19.368 q 0,-3.168 -0.72,-4.896 -0.72,-1.728 -2.448,-2.448 -1.728,-0.72 -4.896,-0.72 h -2.016 q -4.752,0 -7.416,1.224 -2.664,1.224 -3.456,3.744 -0.072,0.36 -0.36,1.08 v 21.384 q 0,1.44 -0.792,2.232 -0.792,0.792 -2.232,0.792 -1.44,0 -2.232,-0.792 -0.792,-0.792 -0.792,-2.232 v -20.88 q -0.36,-0.576 -0.36,-1.224 0,-0.432 0.072,-0.648 0.144,-0.72 0.288,-1.152 v -20.736 q 0,-1.44 0.792,-2.232 0.792,-0.792 2.232,-0.792 1.44,0 2.232,0.792 0.792,0.792 0.792,2.232 V -34.2 q 4.392,-2.304 11.232,-2.304 z" transform="translate(0 278.85074067009435) translate(773.6690541660024 37.52854402606892) scale(1.246043560091759) translate(-712.70675 50.688)"></path>
    </g>
    <g id="tagline" style="font-style:normal;font-weight:normal;font-size:32px;line-height:1;font-family:'PT Sans Caption';font-variant-ligatures:none;text-align:center;text-anchor:middle" aria-label="beyond the pill">
      <path id="path336390" style="font-style: normal; font-weight: normal; font-size: 32px; line-height: 1; font-family: &quot;PT Sans Caption&quot;; font-variant-ligatures: none; text-align: center; text-anchor: middle;" d="m 395.1285,-22.4 h 2.944 v 7.68 h 0.32 q 0.736,-1.28 2.112,-1.888 1.376,-0.64 2.912,-0.64 3.488,0 5.28,2.144 1.824,2.112 1.824,6.4 0,4.384 -2.368,6.688 -2.368,2.304 -6.656,2.304 -2.112,0 -3.84,-0.352 -1.696,-0.352 -2.528,-0.832 z m 7.872,7.648 q -1.024,0 -1.824,0.32 -0.768,0.32 -1.376,0.896 -0.608,0.544 -1.056,1.28 -0.416,0.704 -0.672,1.472 v 7.968 q 1.568,0.608 3.808,0.608 2.528,0 4,-1.536 1.504,-1.568 1.504,-4.992 0,-1.28 -0.256,-2.368 -0.256,-1.12 -0.8,-1.92 -0.544,-0.8 -1.376,-1.248 -0.8,-0.48 -1.952,-0.48 z" transform="translate(0 372.68597846173145) translate(400.0660526315791 51.498947368421085) scale(0.94736842105263) translate(-395.1285 22.4)"></path>
      <path id="path336392" style="font-style: normal; font-weight: normal; font-size: 32px; line-height: 1; font-family: &quot;PT Sans Caption&quot;; font-variant-ligatures: none; text-align: center; text-anchor: middle;" d="m 428.9175,-1.376 q -1.12,0.832 -2.784,1.344 -1.664,0.48 -3.616,0.48 -2.112,0 -3.68,-0.608 -1.536,-0.64 -2.528,-1.792 -0.992,-1.152 -1.472,-2.784 -0.48,-1.632 -0.48,-3.648 0,-4.32 2.112,-6.592 2.144,-2.304 6.08,-2.304 1.248,0 2.496,0.288 1.248,0.256 2.24,1.024 0.992,0.736 1.6,2.048 0.64,1.312 0.64,3.424 0,0.512 -0.032,1.184 -0.032,0.672 -0.128,1.312 h -12 q 0.064,2.944 1.408,4.448 1.344,1.504 4.576,1.504 1.344,0 2.56,-0.448 1.216,-0.48 1.888,-1.12 z m -2.208,-8.736 q 0.064,-2.56 -1.056,-3.616 -1.088,-1.056 -3.072,-1.056 -2.24,0 -3.552,1.056 -1.312,1.056 -1.536,3.616 z" transform="translate(0 372.68597846173145) translate(418.28300000000013 56.34947368421055) scale(0.94736842105263) translate(-414.3575 17.28)"></path>
      <path id="path336394" style="font-style: normal; font-weight: normal; font-size: 32px; line-height: 1; font-family: &quot;PT Sans Caption&quot;; font-variant-ligatures: none; text-align: center; text-anchor: middle;" d="m 438.907,-6.176 0.992,3.232 h 0.416 l 0.8,-3.264 3.488,-10.592 h 3.008 l -5.504,15.2 q -0.608,1.568 -1.248,3.04 -0.608,1.472 -1.376,2.592 -0.736,1.152 -1.664,1.824 -0.896,0.704 -2.08,0.704 -1.28,0 -2.176,-0.288 l 0.48,-2.496 q 0.48,0.16 0.96,0.16 0.64,0 1.152,-0.16 0.544,-0.16 0.992,-0.576 0.448,-0.416 0.8,-1.184 0.384,-0.736 0.704,-1.92 l -7.52,-16.896 h 3.488 z" transform="translate(0 372.68597846173145) translate(434.1736842105264 56.80421052631581) scale(0.94736842105263) translate(-431.131 16.8)"></path>
      <path id="path336396" style="font-style: normal; font-weight: normal; font-size: 32px; line-height: 1; font-family: &quot;PT Sans Caption&quot;; font-variant-ligatures: none; text-align: center; text-anchor: middle;" d="m 449.795,-8.384 q 0,-2.08 0.544,-3.712 0.544,-1.664 1.6,-2.816 1.056,-1.152 2.56,-1.76 1.536,-0.608 3.488,-0.608 2.048,0 3.584,0.672 1.536,0.672 2.56,1.888 1.024,1.184 1.504,2.816 0.512,1.6 0.512,3.52 0,2.048 -0.576,3.68 -0.544,1.632 -1.6,2.784 -1.024,1.152 -2.56,1.76 -1.504,0.608 -3.424,0.608 -2.112,0 -3.648,-0.672 -1.536,-0.672 -2.56,-1.856 -0.992,-1.184 -1.504,-2.784 -0.48,-1.632 -0.48,-3.52 z m 3.136,0 q 0,1.184 0.256,2.336 0.288,1.12 0.896,2.016 0.608,0.896 1.568,1.44 0.96,0.544 2.368,0.544 4.992,0 4.992,-6.336 0,-1.248 -0.288,-2.4 -0.256,-1.152 -0.864,-2.016 -0.576,-0.896 -1.536,-1.44 -0.96,-0.544 -2.304,-0.544 -2.496,0 -3.808,1.6 -1.28,1.568 -1.28,4.8 z" transform="translate(0 372.68597846173145) translate(451.85536842105273 56.34947368421055) scale(0.94736842105263) translate(-449.795 17.28)"></path>
      <path id="path336398" style="font-style: normal; font-weight: normal; font-size: 32px; line-height: 1; font-family: &quot;PT Sans Caption&quot;; font-variant-ligatures: none; text-align: center; text-anchor: middle;" d="m 482.8145,0 v -9.28 q 0,-2.688 -0.864,-4.032 -0.864,-1.344 -3.072,-1.344 -1.952,0 -3.264,1.024 -1.28,0.992 -1.792,2.56 V 0 h -2.944 v -16.8 h 2.048 l 0.576,2.24 h 0.288 q 0.928,-1.152 2.4,-1.92 1.504,-0.8 3.584,-0.8 1.472,0 2.592,0.352 1.12,0.32 1.856,1.184 0.768,0.832 1.152,2.272 0.384,1.408 0.384,3.584 V 0 Z" transform="translate(0 372.68597846173145) translate(471.8292105263158 56.34947368421055) scale(0.94736842105263) translate(-470.8785 17.28)"></path>
      <path id="path336400" style="font-style: normal; font-weight: normal; font-size: 32px; line-height: 1; font-family: &quot;PT Sans Caption&quot;; font-variant-ligatures: none; text-align: center; text-anchor: middle;" d="m 505.7785,-5.792 q 0,1.632 0.032,3.072 0.064,1.408 0.32,2.784 h -1.952 l -0.736,-2.56 h -0.32 q -0.736,1.28 -2.176,2.112 -1.408,0.832 -3.296,0.832 -3.616,0 -5.408,-2.144 -1.76,-2.144 -1.76,-6.592 0,-4.288 2.176,-6.56 2.208,-2.304 6.176,-2.304 0.672,0 1.184,0.064 0.544,0.032 0.992,0.096 0.48,0.064 0.896,0.192 0.448,0.128 0.928,0.256 V -22.4 h 2.944 z m -2.944,-7.904 q -0.736,-0.544 -1.6,-0.736 -0.832,-0.224 -2.24,-0.224 -2.592,0 -4.032,1.504 -1.408,1.504 -1.408,4.896 0,1.344 0.256,2.496 0.256,1.12 0.8,1.952 0.544,0.832 1.44,1.312 0.896,0.448 2.208,0.448 1.952,0 3.04,-0.96 1.088,-0.992 1.536,-2.912 z" transform="translate(0 372.68597846173145) translate(490.40142105263163 51.498947368421085) scale(0.94736842105263) translate(-490.4825 22.4)"></path>
      <path id="path336402" style="font-style: normal; font-weight: normal; font-size: 32px; line-height: 1; font-family: &quot;PT Sans Caption&quot;; font-variant-ligatures: none; text-align: center; text-anchor: middle;" d="m 518.768,-16.8 h 2.848 v -3.392 l 2.944,-0.768 v 4.16 h 5.056 v 2.496 h -5.056 v 8.576 q 0,2.016 0.512,2.848 0.512,0.832 1.76,0.832 0.8,0 1.44,-0.16 0.672,-0.192 1.504,-0.48 l 0.672,2.08 q -1.024,0.448 -2.208,0.736 -1.152,0.32 -2.496,0.32 -2.24,0 -3.2,-1.216 -0.928,-1.216 -0.928,-3.968 v -9.568 h -2.848 z" transform="translate(0 372.68597846173145) translate(517.1982105263158 52.86315789473687) scale(0.94736842105263) translate(-518.768 20.96)"></path>
      <path id="path336404" style="font-style: normal; font-weight: normal; font-size: 32px; line-height: 1; font-family: &quot;PT Sans Caption&quot;; font-variant-ligatures: none; text-align: center; text-anchor: middle;" d="m 545.6895,0 v -9.28 q 0,-1.376 -0.192,-2.368 -0.16,-1.024 -0.64,-1.696 -0.448,-0.672 -1.248,-0.992 -0.768,-0.32 -1.952,-0.32 -0.832,0 -1.632,0.288 -0.8,0.288 -1.472,0.8 -0.672,0.512 -1.152,1.248 -0.48,0.704 -0.704,1.6 V 0 h -2.944 v -22.4 h 2.944 v 7.68 h 0.352 q 0.96,-1.152 2.304,-1.856 1.344,-0.704 3.328,-0.704 1.536,0 2.656,0.352 1.12,0.32 1.856,1.184 0.736,0.832 1.088,2.272 0.352,1.408 0.352,3.552 V 0 Z" transform="translate(0 372.68597846173145) translate(531.3950000000001 51.498947368421085) scale(0.94736842105263) translate(-533.7535 22.4)"></path>
      <path id="path336406" style="font-style: normal; font-weight: normal; font-size: 32px; line-height: 1; font-family: &quot;PT Sans Caption&quot;; font-variant-ligatures: none; text-align: center; text-anchor: middle;" d="m 567.9175,-1.376 q -1.12,0.832 -2.784,1.344 -1.664,0.48 -3.616,0.48 -2.112,0 -3.68,-0.608 -1.536,-0.64 -2.528,-1.792 -0.992,-1.152 -1.472,-2.784 -0.48,-1.632 -0.48,-3.648 0,-4.32 2.112,-6.592 2.144,-2.304 6.08,-2.304 1.248,0 2.496,0.288 1.248,0.256 2.24,1.024 0.992,0.736 1.6,2.048 0.64,1.312 0.64,3.424 0,0.512 -0.032,1.184 -0.032,0.672 -0.128,1.312 h -12 q 0.064,2.944 1.408,4.448 1.344,1.504 4.576,1.504 1.344,0 2.56,-0.448 1.216,-0.48 1.888,-1.12 z m -2.208,-8.736 q 0.064,-2.56 -1.056,-3.616 -1.088,-1.056 -3.072,-1.056 -2.24,0 -3.552,1.056 -1.312,1.056 -1.536,3.616 z" transform="translate(0 372.68597846173145) translate(549.9672105263157 56.34947368421055) scale(0.94736842105263) translate(-553.3575 17.28)"></path>
      <path id="path336408" style="font-style: normal; font-weight: normal; font-size: 32px; line-height: 1; font-family: &quot;PT Sans Caption&quot;; font-variant-ligatures: none; text-align: center; text-anchor: middle;" d="m 582.691,-16.8 h 1.984 l 0.576,2.144 h 0.288 q 0.864,-1.248 2.24,-1.92 1.376,-0.704 3.104,-0.704 3.648,0 5.44,2.048 1.792,2.016 1.792,6.464 0,2.112 -0.608,3.84 -0.576,1.696 -1.696,2.912 -1.088,1.184 -2.688,1.824 -1.568,0.64 -3.52,0.64 -0.64,0 -1.184,-0.064 -0.512,-0.032 -0.96,-0.16 Q 587.011,0.128 586.563,0 586.115,-0.16 585.635,-0.352 V 6.4 h -2.944 z m 7.52,2.016 q -1.92,0 -3.008,0.96 -1.088,0.96 -1.568,2.944 v 7.744 q 0.736,0.512 1.6,0.8 0.864,0.288 2.208,0.288 2.592,0 4.064,-1.696 1.472,-1.696 1.472,-5.056 0,-2.72 -1.088,-4.352 -1.088,-1.632 -3.68,-1.632 z" transform="translate(0 372.68597846173145) translate(577.7568421052631 56.34947368421055) scale(0.94736842105263) translate(-582.691 17.28)"></path>
      <path id="path336410" style="font-style: normal; font-weight: normal; font-size: 32px; line-height: 1; font-family: &quot;PT Sans Caption&quot;; font-variant-ligatures: none; text-align: center; text-anchor: middle;" d="m 603.7105,-16.8 h 2.944 V 0 h -2.944 z m -0.608,-4 q 0,-0.736 0.576,-1.312 0.576,-0.608 1.504,-0.608 0.928,0 1.536,0.608 0.608,0.576 0.608,1.312 0,0.736 -0.608,1.312 -0.608,0.544 -1.536,0.544 -0.928,0 -1.504,-0.544 -0.576,-0.576 -0.576,-1.312 z" transform="translate(0 372.68597846173145) translate(597.0940526315787 51.19578947368424) scale(0.94736842105263) translate(-603.1025 22.72)"></path>
      <path id="path336412" style="font-style: normal; font-weight: normal; font-size: 32px; line-height: 1; font-family: &quot;PT Sans Caption&quot;; font-variant-ligatures: none; text-align: center; text-anchor: middle;" d="m 616.3315,-4.448 q 0,1.312 0.48,1.856 0.512,0.544 1.344,0.544 0.512,0 0.992,-0.064 0.48,-0.064 1.152,-0.256 l 0.384,2.176 q -0.32,0.128 -0.768,0.224 -0.448,0.128 -0.928,0.224 -0.48,0.096 -0.96,0.128 -0.48,0.064 -0.864,0.064 -1.728,0 -2.752,-0.864 -1.024,-0.896 -1.024,-2.944 V -22.4 h 2.944 z" transform="translate(0 372.68597846173145) translate(606.8377368421051 51.498947368421085) scale(0.94736842105263) translate(-613.3875 22.4)"></path>
      <path id="path336414" style="font-style: normal; font-weight: normal; font-size: 32px; line-height: 1; font-family: &quot;PT Sans Caption&quot;; font-variant-ligatures: none; text-align: center; text-anchor: middle;" d="m 627.0815,-4.448 q 0,1.312 0.48,1.856 0.512,0.544 1.344,0.544 0.512,0 0.992,-0.064 0.48,-0.064 1.152,-0.256 l 0.384,2.176 q -0.32,0.128 -0.768,0.224 -0.448,0.128 -0.928,0.224 -0.48,0.096 -0.96,0.128 -0.48,0.064 -0.864,0.064 -1.728,0 -2.752,-0.864 -1.024,-0.896 -1.024,-2.944 V -22.4 h 2.944 z" transform="translate(0 372.68597846173145) translate(617.0219473684208 51.498947368421085) scale(0.94736842105263) translate(-624.1375 22.4)"></path>
    </g>
  </g>
</svg>
